<svg xmlns="http://www.w3.org/2000/svg" xmlns:xlink="http://www.w3.org/1999/xlink" width="500" zoomAndPan="magnify" viewBox="0 0 375 374.999991" height="500" preserveAspectRatio="xMidYMid meet" version="1.0"><defs><g/><clipPath id="5fbc069510"><path d="M 188.476562 91.589844 L 344.15625 91.589844 L 344.15625 247.273438 L 188.476562 247.273438 Z M 188.476562 91.589844 " clip-rule="nonzero"/></clipPath></defs><g clip-path="url(#5fbc069510)"><path fill="#9cff1e" d="M 287.28125 247.910156 L 244.375 247.910156 C 229.171875 195.9375 202.214844 188.175781 187.496094 188.175781 L 187.496094 143.472656 C 199.785156 143.472656 222.027344 146.304688 243.476562 163.382812 L 243.476562 91.660156 L 288.179688 91.660156 L 288.179688 163.382812 C 309.628906 146.304688 331.871094 143.472656 344.15625 143.472656 L 344.15625 188.175781 C 329.441406 188.175781 302.480469 195.9375 287.28125 247.910156 Z M 287.28125 247.910156 " fill-opacity="1" fill-rule="nonzero"/></g><g fill="#004aad" fill-opacity="1"><g transform="translate(0.0000045, 249.067592)"><g><path d="M 97.4375 2.21875 C 161 2.21875 190.453125 -23.921875 190.453125 -77.734375 L 190.453125 -155.015625 L 82.609375 -155.015625 L 82.609375 -106.296875 L 132.875 -106.296875 L 132.875 -77.734375 C 132.875 -61.34375 126.890625 -46.5 97.4375 -46.5 C 67.984375 -46.5 62 -61.125 62 -77.734375 L 4.421875 -77.734375 C 4.421875 -23.703125 33.65625 2.21875 97.4375 2.21875 Z M 97.4375 2.21875 "/></g></g></g></svg>