<svg width="52" height="52" viewBox="0 0 52 52" fill="none" xmlns="http://www.w3.org/2000/svg">
<g filter="url(#filter0_iii_3203_965)">
<rect x="2" y="2" width="48" height="48" rx="9" fill="#252B37"/>
</g>
<rect x="1" y="1" width="50" height="50" rx="10" stroke="#252B37" stroke-width="2"/>
<rect x="1" y="1" width="50" height="50" rx="10" stroke="#252B37" stroke-opacity="0.85" stroke-width="2"/>
<g filter="url(#filter1_i_3203_965)">
<path d="M13 16.125C13 14.3991 14.3991 13 16.125 13H22.375C24.1009 13 25.5 14.3991 25.5 16.125V22.262C25.5001 22.2995 25.5002 22.3372 25.5002 22.375C25.5002 24.0984 26.8953 25.496 28.6178 25.5C28.6202 25.5 28.6226 25.5 28.625 25.5H34.875C36.6009 25.5 38 26.8991 38 28.625V34.875C38 36.6009 36.6009 38 34.875 38H28.625C26.8991 38 25.5 36.6009 25.5 34.875V28.625C25.5 28.6163 25.5 28.6077 25.5001 28.599C25.4861 26.8851 24.0924 25.5 22.3752 25.5C22.3671 25.5 22.3591 25.5 22.351 25.5H16.125C14.3991 25.5 13 24.1009 13 22.375V16.125Z" fill="#E0E0E0"/>
<path d="M13 16.125C13 14.3991 14.3991 13 16.125 13H22.375C24.1009 13 25.5 14.3991 25.5 16.125V22.262C25.5001 22.2995 25.5002 22.3372 25.5002 22.375C25.5002 24.0984 26.8953 25.496 28.6178 25.5C28.6202 25.5 28.6226 25.5 28.625 25.5H34.875C36.6009 25.5 38 26.8991 38 28.625V34.875C38 36.6009 36.6009 38 34.875 38H28.625C26.8991 38 25.5 36.6009 25.5 34.875V28.625C25.5 28.6163 25.5 28.6077 25.5001 28.599C25.4861 26.8851 24.0924 25.5 22.3752 25.5C22.3671 25.5 22.3591 25.5 22.351 25.5H16.125C14.3991 25.5 13 24.1009 13 22.375V16.125Z" fill="white" fill-opacity="0.89"/>
<path d="M16.125 38C14.3991 38 13 36.6009 13 34.875L13 28.625C13 26.8991 14.3991 25.5 16.125 25.5H22.262C22.2995 25.4999 22.3372 25.4998 22.375 25.4998C24.0984 25.4998 25.496 24.1047 25.5 22.3822C25.5 22.3798 25.5 22.3774 25.5 22.375L25.5 16.125C25.5 14.3991 26.8991 13 28.625 13H34.875C36.6009 13 38 14.3991 38 16.125V22.375C38 24.1009 36.6009 25.5 34.875 25.5L28.625 25.5C28.6163 25.5 28.6077 25.5 28.599 25.4999C26.8851 25.5139 25.5 26.9076 25.5 28.6248C25.5 28.6329 25.5 28.6409 25.5 28.649V34.875C25.5 36.6009 24.1009 38 22.375 38H16.125Z" fill="#E0E0E0"/>
<path d="M16.125 38C14.3991 38 13 36.6009 13 34.875L13 28.625C13 26.8991 14.3991 25.5 16.125 25.5H22.262C22.2995 25.4999 22.3372 25.4998 22.375 25.4998C24.0984 25.4998 25.496 24.1047 25.5 22.3822C25.5 22.3798 25.5 22.3774 25.5 22.375L25.5 16.125C25.5 14.3991 26.8991 13 28.625 13H34.875C36.6009 13 38 14.3991 38 16.125V22.375C38 24.1009 36.6009 25.5 34.875 25.5L28.625 25.5C28.6163 25.5 28.6077 25.5 28.599 25.4999C26.8851 25.5139 25.5 26.9076 25.5 28.6248C25.5 28.6329 25.5 28.6409 25.5 28.649V34.875C25.5 36.6009 24.1009 38 22.375 38H16.125Z" fill="white" fill-opacity="0.89"/>
</g>
<defs>
<filter id="filter0_iii_3203_965" x="0" y="0" width="52" height="56" filterUnits="userSpaceOnUse" color-interpolation-filters="sRGB">
<feFlood flood-opacity="0" result="BackgroundImageFix"/>
<feBlend mode="normal" in="SourceGraphic" in2="BackgroundImageFix" result="shape"/>
<feColorMatrix in="SourceAlpha" type="matrix" values="0 0 0 0 0 0 0 0 0 0 0 0 0 0 0 0 0 0 127 0" result="hardAlpha"/>
<feOffset dy="4"/>
<feGaussianBlur stdDeviation="2"/>
<feComposite in2="hardAlpha" operator="arithmetic" k2="-1" k3="1"/>
<feColorMatrix type="matrix" values="0 0 0 0 0 0 0 0 0 0 0 0 0 0 0 0 0 0 0.25 0"/>
<feBlend mode="normal" in2="shape" result="effect1_innerShadow_3203_965"/>
<feColorMatrix in="SourceAlpha" type="matrix" values="0 0 0 0 0 0 0 0 0 0 0 0 0 0 0 0 0 0 127 0" result="hardAlpha"/>
<feOffset dy="4"/>
<feGaussianBlur stdDeviation="2"/>
<feComposite in2="hardAlpha" operator="arithmetic" k2="-1" k3="1"/>
<feColorMatrix type="matrix" values="0 0 0 0 0 0 0 0 0 0 0 0 0 0 0 0 0 0 0.25 0"/>
<feBlend mode="normal" in2="effect1_innerShadow_3203_965" result="effect2_innerShadow_3203_965"/>
<feColorMatrix in="SourceAlpha" type="matrix" values="0 0 0 0 0 0 0 0 0 0 0 0 0 0 0 0 0 0 127 0" result="hardAlpha"/>
<feOffset dy="4"/>
<feGaussianBlur stdDeviation="2"/>
<feComposite in2="hardAlpha" operator="arithmetic" k2="-1" k3="1"/>
<feColorMatrix type="matrix" values="0 0 0 0 0 0 0 0 0 0 0 0 0 0 0 0 0 0 0.25 0"/>
<feBlend mode="normal" in2="effect2_innerShadow_3203_965" result="effect3_innerShadow_3203_965"/>
</filter>
<filter id="filter1_i_3203_965" x="13" y="13" width="25" height="29" filterUnits="userSpaceOnUse" color-interpolation-filters="sRGB">
<feFlood flood-opacity="0" result="BackgroundImageFix"/>
<feBlend mode="normal" in="SourceGraphic" in2="BackgroundImageFix" result="shape"/>
<feColorMatrix in="SourceAlpha" type="matrix" values="0 0 0 0 0 0 0 0 0 0 0 0 0 0 0 0 0 0 127 0" result="hardAlpha"/>
<feOffset dy="4"/>
<feGaussianBlur stdDeviation="2"/>
<feComposite in2="hardAlpha" operator="arithmetic" k2="-1" k3="1"/>
<feColorMatrix type="matrix" values="0 0 0 0 0 0 0 0 0 0 0 0 0 0 0 0 0 0 0.25 0"/>
<feBlend mode="normal" in2="shape" result="effect1_innerShadow_3203_965"/>
</filter>
</defs>
</svg>
