<svg width="229" height="52" viewBox="0 0 229 52" fill="none" xmlns="http://www.w3.org/2000/svg">
<path d="M228.343 37.08H220.463L216.023 28.56C215.943 28.4267 215.729 28.0533 215.383 27.44C215.063 26.8267 214.703 26.24 214.303 25.68V37.08H207.103V14.28H214.303V24.64C214.756 24.1333 215.143 23.5867 215.463 23C215.809 22.3867 216.009 22.0267 216.063 21.92L220.343 14.28H227.943L223.383 21.92C223.303 22.0267 223.129 22.3067 222.863 22.76C222.596 23.2133 222.303 23.64 221.983 24.04C221.689 24.4133 221.369 24.76 221.023 25.08C221.503 25.5333 221.889 25.9867 222.183 26.44C222.503 26.8667 222.863 27.44 223.263 28.16L228.343 37.08Z" fill="white"/>
<path d="M204.62 37.08H197.06L195.7 31.32C195.646 31.1067 195.553 30.7467 195.42 30.24C195.313 29.7067 195.18 29.32 195.02 29.08C194.86 28.8133 194.633 28.64 194.34 28.56C193.593 28.5867 192.5 28.6 191.06 28.6V37.08H183.86V14.48C187.086 14.24 190.1 14.12 192.9 14.12C195.433 14.12 197.486 14.3333 199.06 14.76C200.633 15.16 201.806 15.8667 202.58 16.88C203.38 17.8667 203.78 19.2267 203.78 20.96C203.78 22.5867 203.406 23.8667 202.66 24.8C201.913 25.7067 200.713 26.2533 199.06 26.44V26.68C199.993 26.76 200.766 27.0667 201.38 27.6C202.02 28.1067 202.446 28.76 202.66 29.56L204.62 37.08ZM191.06 24.08C191.3 24.1067 191.766 24.12 192.46 24.12C194.513 24.12 195.713 23.9467 196.06 23.6C196.38 23.28 196.54 22.5333 196.54 21.36C196.54 20.2667 196.246 19.52 195.66 19.12C195.1 18.72 194.166 18.52 192.86 18.52C192.566 18.52 191.966 18.5467 191.06 18.6V24.08Z" fill="white"/>
<path d="M164.207 14.28H180.807V19.08H171.407V23.24H179.327V27.56H171.407V32.2H180.767V37.08H164.207V14.28Z" fill="white"/>
<path d="M141.167 37.08H132.167L126.287 14.28H133.967L137.007 31.04H137.207L140.447 14.28H147.967L151.287 31.04H151.407L154.487 14.28H161.847L155.967 37.08H147.007L144.287 22.52H144.047L141.167 37.08Z" fill="white"/>
<path d="M119.675 25.04C121.489 25.2533 122.782 25.8667 123.555 26.88C124.329 27.8667 124.715 29.0667 124.715 30.48C124.715 31.36 124.582 32.2 124.315 33C124.049 33.7733 123.729 34.44 123.355 35C122.982 35.5333 122.662 35.88 122.395 36.04C121.329 36.7333 118.075 37.08 112.635 37.08H104.875V14.28H114.275C116.409 14.28 118.129 14.4 119.435 14.64C120.769 14.8533 121.849 15.36 122.675 16.16C123.502 16.9333 123.915 18.12 123.915 19.72C123.915 21.1067 123.569 22.2267 122.875 23.08C122.209 23.9333 121.142 24.52 119.675 24.84V25.04ZM116.475 19.12C116.209 18.8533 115.889 18.6933 115.515 18.64C115.169 18.56 114.609 18.52 113.835 18.52C113.062 18.52 112.475 18.5333 112.075 18.56V23.44H112.475C112.609 23.44 113.169 23.44 114.155 23.44C115.142 23.44 115.795 23.3733 116.115 23.24C116.355 23.1333 116.569 22.8533 116.755 22.4C116.969 21.9467 117.075 21.4533 117.075 20.92C117.075 20.12 116.875 19.52 116.475 19.12ZM117.155 32.48C117.342 32.32 117.489 32.0267 117.595 31.6C117.729 31.1467 117.795 30.6933 117.795 30.24C117.795 29.68 117.715 29.16 117.555 28.68C117.422 28.1733 117.235 27.8133 116.995 27.6C116.755 27.36 116.409 27.2 115.955 27.12C115.529 27.04 114.795 27 113.755 27C113.089 27 112.529 27.0133 112.075 27.04V32.84C113.329 32.8667 114.449 32.8533 115.435 32.8C116.422 32.72 116.995 32.6133 117.155 32.48Z" fill="white"/>
<path d="M90.2922 37.6C86.3188 37.6 83.3322 36.6667 81.3322 34.8C79.3588 32.9067 78.3722 29.88 78.3722 25.72C78.3722 21.64 79.4655 18.6667 81.6522 16.8C83.8388 14.9333 86.7322 14 90.3322 14C97.9055 14 101.692 17.7733 101.692 25.32C101.692 29.1333 100.759 32.1333 98.8922 34.32C97.0522 36.5067 94.1855 37.6 90.2922 37.6ZM90.1322 32.88C90.8788 32.88 91.5055 32.76 92.0122 32.52C92.5188 32.2533 92.9188 31.8 93.2122 31.16C93.7722 30.0667 94.0522 28.28 94.0522 25.8C94.0522 23.3733 93.7722 21.6133 93.2122 20.52C92.6522 19.4 91.6255 18.8133 90.1322 18.76C89.5722 18.76 88.9855 18.8267 88.3722 18.96C87.7855 19.0667 87.4122 19.2267 87.2522 19.44C86.9322 19.8133 86.6788 20.6133 86.4922 21.84C86.3322 23.04 86.2522 24.36 86.2522 25.8C86.2522 28.04 86.4655 29.68 86.8922 30.72C87.1855 31.4933 87.5988 32.0533 88.1322 32.4C88.6655 32.72 89.3322 32.88 90.1322 32.88Z" fill="white"/>
<path d="M75.24 14.28V28.88C75.24 30.9067 75.0533 32.5467 74.68 33.8C74.3067 35.0533 73.64 36 72.68 36.64C71.7467 37.28 70.4267 37.6 68.72 37.6C66.9067 37.6 65 37.4267 63 37.08L63.6 32.48C64.3467 32.5067 65.2 32.4933 66.16 32.44C67.12 32.3867 67.6667 32.28 67.8 32.12C67.96 31.8533 68.04 31.2133 68.04 30.2C68.04 29.1867 68.04 28.6133 68.04 28.48V14.28H75.24Z" fill="white"/>
<g filter="url(#filter0_iii_3203_950)">
<rect x="2" y="2" width="48" height="48" rx="9" fill="#252B37"/>
</g>
<rect x="1" y="1" width="50" height="50" rx="10" stroke="#252B37" stroke-width="2"/>
<rect x="1" y="1" width="50" height="50" rx="10" stroke="#252B37" stroke-opacity="0.85" stroke-width="2"/>
<g filter="url(#filter1_i_3203_950)">
<path d="M13 16.125C13 14.3991 14.3991 13 16.125 13H22.375C24.1009 13 25.5 14.3991 25.5 16.125V22.262C25.5001 22.2995 25.5002 22.3372 25.5002 22.375C25.5002 24.0984 26.8953 25.496 28.6178 25.5C28.6202 25.5 28.6226 25.5 28.625 25.5H34.875C36.6009 25.5 38 26.8991 38 28.625V34.875C38 36.6009 36.6009 38 34.875 38H28.625C26.8991 38 25.5 36.6009 25.5 34.875V28.625C25.5 28.6163 25.5 28.6077 25.5001 28.599C25.4861 26.8851 24.0924 25.5 22.3752 25.5C22.3671 25.5 22.3591 25.5 22.351 25.5H16.125C14.3991 25.5 13 24.1009 13 22.375V16.125Z" fill="#E0E0E0"/>
<path d="M13 16.125C13 14.3991 14.3991 13 16.125 13H22.375C24.1009 13 25.5 14.3991 25.5 16.125V22.262C25.5001 22.2995 25.5002 22.3372 25.5002 22.375C25.5002 24.0984 26.8953 25.496 28.6178 25.5C28.6202 25.5 28.6226 25.5 28.625 25.5H34.875C36.6009 25.5 38 26.8991 38 28.625V34.875C38 36.6009 36.6009 38 34.875 38H28.625C26.8991 38 25.5 36.6009 25.5 34.875V28.625C25.5 28.6163 25.5 28.6077 25.5001 28.599C25.4861 26.8851 24.0924 25.5 22.3752 25.5C22.3671 25.5 22.3591 25.5 22.351 25.5H16.125C14.3991 25.5 13 24.1009 13 22.375V16.125Z" fill="white" fill-opacity="0.89"/>
<path d="M16.125 38C14.3991 38 13 36.6009 13 34.875L13 28.625C13 26.8991 14.3991 25.5 16.125 25.5H22.262C22.2995 25.4999 22.3372 25.4998 22.375 25.4998C24.0984 25.4998 25.496 24.1047 25.5 22.3822C25.5 22.3798 25.5 22.3774 25.5 22.375L25.5 16.125C25.5 14.3991 26.8991 13 28.625 13H34.875C36.6009 13 38 14.3991 38 16.125V22.375C38 24.1009 36.6009 25.5 34.875 25.5L28.625 25.5C28.6163 25.5 28.6077 25.5 28.599 25.4999C26.8851 25.5139 25.5 26.9076 25.5 28.6248C25.5 28.6329 25.5 28.6409 25.5 28.649V34.875C25.5 36.6009 24.1009 38 22.375 38H16.125Z" fill="#E0E0E0"/>
<path d="M16.125 38C14.3991 38 13 36.6009 13 34.875L13 28.625C13 26.8991 14.3991 25.5 16.125 25.5H22.262C22.2995 25.4999 22.3372 25.4998 22.375 25.4998C24.0984 25.4998 25.496 24.1047 25.5 22.3822C25.5 22.3798 25.5 22.3774 25.5 22.375L25.5 16.125C25.5 14.3991 26.8991 13 28.625 13H34.875C36.6009 13 38 14.3991 38 16.125V22.375C38 24.1009 36.6009 25.5 34.875 25.5L28.625 25.5C28.6163 25.5 28.6077 25.5 28.599 25.4999C26.8851 25.5139 25.5 26.9076 25.5 28.6248C25.5 28.6329 25.5 28.6409 25.5 28.649V34.875C25.5 36.6009 24.1009 38 22.375 38H16.125Z" fill="white" fill-opacity="0.89"/>
</g>
<defs>
<filter id="filter0_iii_3203_950" x="0" y="0" width="52" height="56" filterUnits="userSpaceOnUse" color-interpolation-filters="sRGB">
<feFlood flood-opacity="0" result="BackgroundImageFix"/>
<feBlend mode="normal" in="SourceGraphic" in2="BackgroundImageFix" result="shape"/>
<feColorMatrix in="SourceAlpha" type="matrix" values="0 0 0 0 0 0 0 0 0 0 0 0 0 0 0 0 0 0 127 0" result="hardAlpha"/>
<feOffset dy="4"/>
<feGaussianBlur stdDeviation="2"/>
<feComposite in2="hardAlpha" operator="arithmetic" k2="-1" k3="1"/>
<feColorMatrix type="matrix" values="0 0 0 0 0 0 0 0 0 0 0 0 0 0 0 0 0 0 0.25 0"/>
<feBlend mode="normal" in2="shape" result="effect1_innerShadow_3203_950"/>
<feColorMatrix in="SourceAlpha" type="matrix" values="0 0 0 0 0 0 0 0 0 0 0 0 0 0 0 0 0 0 127 0" result="hardAlpha"/>
<feOffset dy="4"/>
<feGaussianBlur stdDeviation="2"/>
<feComposite in2="hardAlpha" operator="arithmetic" k2="-1" k3="1"/>
<feColorMatrix type="matrix" values="0 0 0 0 0 0 0 0 0 0 0 0 0 0 0 0 0 0 0.25 0"/>
<feBlend mode="normal" in2="effect1_innerShadow_3203_950" result="effect2_innerShadow_3203_950"/>
<feColorMatrix in="SourceAlpha" type="matrix" values="0 0 0 0 0 0 0 0 0 0 0 0 0 0 0 0 0 0 127 0" result="hardAlpha"/>
<feOffset dy="4"/>
<feGaussianBlur stdDeviation="2"/>
<feComposite in2="hardAlpha" operator="arithmetic" k2="-1" k3="1"/>
<feColorMatrix type="matrix" values="0 0 0 0 0 0 0 0 0 0 0 0 0 0 0 0 0 0 0.25 0"/>
<feBlend mode="normal" in2="effect2_innerShadow_3203_950" result="effect3_innerShadow_3203_950"/>
</filter>
<filter id="filter1_i_3203_950" x="13" y="13" width="25" height="29" filterUnits="userSpaceOnUse" color-interpolation-filters="sRGB">
<feFlood flood-opacity="0" result="BackgroundImageFix"/>
<feBlend mode="normal" in="SourceGraphic" in2="BackgroundImageFix" result="shape"/>
<feColorMatrix in="SourceAlpha" type="matrix" values="0 0 0 0 0 0 0 0 0 0 0 0 0 0 0 0 0 0 127 0" result="hardAlpha"/>
<feOffset dy="4"/>
<feGaussianBlur stdDeviation="2"/>
<feComposite in2="hardAlpha" operator="arithmetic" k2="-1" k3="1"/>
<feColorMatrix type="matrix" values="0 0 0 0 0 0 0 0 0 0 0 0 0 0 0 0 0 0 0.25 0"/>
<feBlend mode="normal" in2="shape" result="effect1_innerShadow_3203_950"/>
</filter>
</defs>
</svg>
